<mxfile host="app.diagrams.net" modified="2022-07-25T17:52:20.601Z" agent="5.0 (Windows NT 10.0; Win64; x64) AppleWebKit/537.36 (KHTML, like Gecko) Chrome/103.0.0.0 Safari/537.36" etag="pHo8css9f4kfTdf1TPnd" version="20.2.0" type="github">
  <diagram id="R2lEEEUBdFMjLlhIrx00" name="Page-1">
    <mxGraphModel dx="3655" dy="948" grid="1" gridSize="10" guides="1" tooltips="1" connect="1" arrows="1" fold="1" page="1" pageScale="1" pageWidth="1700" pageHeight="1100" math="0" shadow="0" extFonts="Permanent Marker^https://fonts.googleapis.com/css?family=Permanent+Marker">
      <root>
        <mxCell id="0" />
        <mxCell id="1" parent="0" />
        <mxCell id="VRYEfncFMhEffbPKctWl-1" value="" style="rounded=0;whiteSpace=wrap;html=1;" parent="1" vertex="1">
          <mxGeometry x="-1495" y="303" width="110" height="60" as="geometry" />
        </mxCell>
        <mxCell id="VRYEfncFMhEffbPKctWl-4" value="" style="rounded=0;whiteSpace=wrap;html=1;fontSize=20;" parent="1" vertex="1">
          <mxGeometry x="-1020" y="151" width="120" height="60" as="geometry" />
        </mxCell>
        <mxCell id="VRYEfncFMhEffbPKctWl-5" value="&lt;font style=&quot;font-size: 20px;&quot;&gt;User&lt;/font&gt;" style="text;html=1;strokeColor=none;fillColor=none;align=center;verticalAlign=middle;whiteSpace=wrap;rounded=0;fontSize=20;" parent="1" vertex="1">
          <mxGeometry x="-990" y="166" width="60" height="30" as="geometry" />
        </mxCell>
        <mxCell id="VRYEfncFMhEffbPKctWl-6" value="" style="rounded=0;whiteSpace=wrap;html=1;fontSize=20;" parent="1" vertex="1">
          <mxGeometry x="-440" y="153" width="120" height="60" as="geometry" />
        </mxCell>
        <mxCell id="VRYEfncFMhEffbPKctWl-7" value="&lt;font style=&quot;font-size: 22px;&quot;&gt;Admin&lt;/font&gt;" style="text;html=1;strokeColor=none;fillColor=none;align=center;verticalAlign=middle;whiteSpace=wrap;rounded=0;fontSize=20;" parent="1" vertex="1">
          <mxGeometry x="-409" y="169" width="60" height="30" as="geometry" />
        </mxCell>
        <mxCell id="VRYEfncFMhEffbPKctWl-8" value="" style="rounded=0;whiteSpace=wrap;html=1;fontSize=21;" parent="1" vertex="1">
          <mxGeometry x="-1020" y="532" width="120" height="60" as="geometry" />
        </mxCell>
        <mxCell id="VRYEfncFMhEffbPKctWl-9" value="Booking" style="text;html=1;strokeColor=none;fillColor=none;align=center;verticalAlign=middle;whiteSpace=wrap;rounded=0;fontSize=21;" parent="1" vertex="1">
          <mxGeometry x="-1010" y="547" width="100" height="35" as="geometry" />
        </mxCell>
        <mxCell id="VRYEfncFMhEffbPKctWl-10" value="" style="rounded=0;whiteSpace=wrap;html=1;fontSize=21;" parent="1" vertex="1">
          <mxGeometry x="-440" y="530" width="120" height="60" as="geometry" />
        </mxCell>
        <mxCell id="VRYEfncFMhEffbPKctWl-11" value="Charging Point" style="text;html=1;strokeColor=none;fillColor=none;align=center;verticalAlign=middle;whiteSpace=wrap;rounded=0;fontSize=21;" parent="1" vertex="1">
          <mxGeometry x="-410" y="547.5" width="60" height="30" as="geometry" />
        </mxCell>
        <mxCell id="VRYEfncFMhEffbPKctWl-2" value="&lt;font style=&quot;font-size: 20px;&quot;&gt;Enquiry&lt;/font&gt;" style="text;html=1;strokeColor=none;fillColor=none;align=center;verticalAlign=middle;whiteSpace=wrap;rounded=0;" parent="1" vertex="1">
          <mxGeometry x="-1481.5" y="310" width="85" height="42.5" as="geometry" />
        </mxCell>
        <mxCell id="VRYEfncFMhEffbPKctWl-13" value="" style="rhombus;whiteSpace=wrap;html=1;fontSize=21;" parent="1" vertex="1">
          <mxGeometry x="-1008" y="301" width="90" height="60" as="geometry" />
        </mxCell>
        <mxCell id="VRYEfncFMhEffbPKctWl-14" value="Do" style="text;html=1;strokeColor=none;fillColor=none;align=center;verticalAlign=middle;whiteSpace=wrap;rounded=0;fontSize=21;" parent="1" vertex="1">
          <mxGeometry x="-995" y="317.25" width="60" height="30" as="geometry" />
        </mxCell>
        <mxCell id="VRYEfncFMhEffbPKctWl-15" value="" style="endArrow=none;html=1;rounded=0;fontSize=21;exitX=0.5;exitY=0;exitDx=0;exitDy=0;" parent="1" source="VRYEfncFMhEffbPKctWl-13" edge="1">
          <mxGeometry width="50" height="50" relative="1" as="geometry">
            <mxPoint x="-800" y="230" as="sourcePoint" />
            <mxPoint x="-963" y="210" as="targetPoint" />
          </mxGeometry>
        </mxCell>
        <mxCell id="VRYEfncFMhEffbPKctWl-17" value="" style="rhombus;whiteSpace=wrap;html=1;fontSize=21;" parent="1" vertex="1">
          <mxGeometry x="-750" y="520" width="160" height="80" as="geometry" />
        </mxCell>
        <mxCell id="VRYEfncFMhEffbPKctWl-18" value="Belongs To" style="text;html=1;strokeColor=none;fillColor=none;align=center;verticalAlign=middle;whiteSpace=wrap;rounded=0;fontSize=21;" parent="1" vertex="1">
          <mxGeometry x="-700" y="553" width="60" height="30" as="geometry" />
        </mxCell>
        <mxCell id="VRYEfncFMhEffbPKctWl-27" value="" style="rhombus;whiteSpace=wrap;html=1;fontSize=21;" parent="1" vertex="1">
          <mxGeometry x="-441" y="304" width="110" height="57" as="geometry" />
        </mxCell>
        <mxCell id="VRYEfncFMhEffbPKctWl-28" value="Add" style="text;html=1;strokeColor=none;fillColor=none;align=center;verticalAlign=middle;whiteSpace=wrap;rounded=0;fontSize=21;" parent="1" vertex="1">
          <mxGeometry x="-417" y="318.25" width="60" height="30" as="geometry" />
        </mxCell>
        <mxCell id="Yg5qx0b34KUIiGcMEkgF-1" value="id" style="ellipse;whiteSpace=wrap;html=1;align=center;fontStyle=4;" vertex="1" parent="1">
          <mxGeometry x="-400" y="40" width="75" height="30" as="geometry" />
        </mxCell>
        <mxCell id="Yg5qx0b34KUIiGcMEkgF-7" value="" style="shape=link;html=1;rounded=0;entryX=0.5;entryY=0;entryDx=0;entryDy=0;" edge="1" parent="1" source="VRYEfncFMhEffbPKctWl-13" target="VRYEfncFMhEffbPKctWl-8">
          <mxGeometry relative="1" as="geometry">
            <mxPoint x="-960" y="360" as="sourcePoint" />
            <mxPoint x="-960" y="530" as="targetPoint" />
          </mxGeometry>
        </mxCell>
        <mxCell id="Yg5qx0b34KUIiGcMEkgF-8" value="M" style="resizable=0;html=1;align=left;verticalAlign=bottom;" connectable="0" vertex="1" parent="Yg5qx0b34KUIiGcMEkgF-7">
          <mxGeometry x="-1" relative="1" as="geometry">
            <mxPoint x="10" y="-130" as="offset" />
          </mxGeometry>
        </mxCell>
        <mxCell id="Yg5qx0b34KUIiGcMEkgF-9" value="N" style="resizable=0;html=1;align=right;verticalAlign=bottom;" connectable="0" vertex="1" parent="Yg5qx0b34KUIiGcMEkgF-7">
          <mxGeometry x="1" relative="1" as="geometry">
            <mxPoint x="17" y="-10" as="offset" />
          </mxGeometry>
        </mxCell>
        <mxCell id="Yg5qx0b34KUIiGcMEkgF-10" value="" style="shape=link;html=1;rounded=0;exitX=1;exitY=0.5;exitDx=0;exitDy=0;entryX=0;entryY=0.5;entryDx=0;entryDy=0;" edge="1" parent="1" source="VRYEfncFMhEffbPKctWl-8" target="VRYEfncFMhEffbPKctWl-17">
          <mxGeometry relative="1" as="geometry">
            <mxPoint x="-950" y="700" as="sourcePoint" />
            <mxPoint x="-790" y="700" as="targetPoint" />
          </mxGeometry>
        </mxCell>
        <mxCell id="Yg5qx0b34KUIiGcMEkgF-12" value="" style="shape=link;html=1;rounded=0;exitX=1;exitY=0.5;exitDx=0;exitDy=0;entryX=0;entryY=0.5;entryDx=0;entryDy=0;" edge="1" parent="1" source="VRYEfncFMhEffbPKctWl-17" target="VRYEfncFMhEffbPKctWl-10">
          <mxGeometry relative="1" as="geometry">
            <mxPoint x="-590" y="572" as="sourcePoint" />
            <mxPoint x="-440" y="570" as="targetPoint" />
          </mxGeometry>
        </mxCell>
        <mxCell id="Yg5qx0b34KUIiGcMEkgF-14" value="" style="endArrow=none;html=1;rounded=0;entryX=0.436;entryY=1.016;entryDx=0;entryDy=0;exitX=0.5;exitY=0;exitDx=0;exitDy=0;entryPerimeter=0;" edge="1" parent="1" source="VRYEfncFMhEffbPKctWl-27" target="VRYEfncFMhEffbPKctWl-6">
          <mxGeometry relative="1" as="geometry">
            <mxPoint x="-880" y="560" as="sourcePoint" />
            <mxPoint x="-720" y="560" as="targetPoint" />
          </mxGeometry>
        </mxCell>
        <mxCell id="Yg5qx0b34KUIiGcMEkgF-15" value="&lt;font style=&quot;font-size: 15px;&quot;&gt;1&lt;/font&gt;" style="resizable=0;html=1;align=right;verticalAlign=bottom;" connectable="0" vertex="1" parent="Yg5qx0b34KUIiGcMEkgF-14">
          <mxGeometry x="1" relative="1" as="geometry">
            <mxPoint x="14" y="22" as="offset" />
          </mxGeometry>
        </mxCell>
        <mxCell id="Yg5qx0b34KUIiGcMEkgF-16" value="" style="shape=link;html=1;rounded=0;exitX=0.479;exitY=0.019;exitDx=0;exitDy=0;exitPerimeter=0;" edge="1" parent="1" source="VRYEfncFMhEffbPKctWl-10">
          <mxGeometry relative="1" as="geometry">
            <mxPoint x="-510" y="370" as="sourcePoint" />
            <mxPoint x="-386" y="360" as="targetPoint" />
          </mxGeometry>
        </mxCell>
        <mxCell id="Yg5qx0b34KUIiGcMEkgF-17" value="M" style="resizable=0;html=1;align=left;verticalAlign=bottom;" connectable="0" vertex="1" parent="Yg5qx0b34KUIiGcMEkgF-16">
          <mxGeometry x="-1" relative="1" as="geometry">
            <mxPoint x="7" as="offset" />
          </mxGeometry>
        </mxCell>
        <mxCell id="Yg5qx0b34KUIiGcMEkgF-19" value="" style="endArrow=none;html=1;rounded=0;entryX=0.467;entryY=0.968;entryDx=0;entryDy=0;entryPerimeter=0;exitX=0.5;exitY=0;exitDx=0;exitDy=0;" edge="1" parent="1" source="VRYEfncFMhEffbPKctWl-6" target="Yg5qx0b34KUIiGcMEkgF-1">
          <mxGeometry relative="1" as="geometry">
            <mxPoint x="-370" y="150" as="sourcePoint" />
            <mxPoint x="-290" y="100" as="targetPoint" />
          </mxGeometry>
        </mxCell>
        <mxCell id="Yg5qx0b34KUIiGcMEkgF-21" value="manage" style="shape=rhombus;perimeter=rhombusPerimeter;whiteSpace=wrap;html=1;align=center;" vertex="1" parent="1">
          <mxGeometry x="-685" y="230" width="90" height="40" as="geometry" />
        </mxCell>
        <mxCell id="Yg5qx0b34KUIiGcMEkgF-22" value="" style="endArrow=none;html=1;rounded=0;exitX=0.75;exitY=0;exitDx=0;exitDy=0;entryX=0;entryY=0.5;entryDx=0;entryDy=0;" edge="1" parent="1" source="VRYEfncFMhEffbPKctWl-8" target="Yg5qx0b34KUIiGcMEkgF-21">
          <mxGeometry relative="1" as="geometry">
            <mxPoint x="-820" y="380" as="sourcePoint" />
            <mxPoint x="-660" y="380" as="targetPoint" />
          </mxGeometry>
        </mxCell>
        <mxCell id="Yg5qx0b34KUIiGcMEkgF-23" value="" style="endArrow=none;html=1;rounded=0;exitX=1;exitY=0.5;exitDx=0;exitDy=0;entryX=0;entryY=0.5;entryDx=0;entryDy=0;" edge="1" parent="1" source="Yg5qx0b34KUIiGcMEkgF-21" target="VRYEfncFMhEffbPKctWl-6">
          <mxGeometry relative="1" as="geometry">
            <mxPoint x="-820" y="380" as="sourcePoint" />
            <mxPoint x="-660" y="380" as="targetPoint" />
          </mxGeometry>
        </mxCell>
        <mxCell id="Yg5qx0b34KUIiGcMEkgF-24" value="Username" style="ellipse;whiteSpace=wrap;html=1;align=center;rotation=15;" vertex="1" parent="1">
          <mxGeometry x="-310.17" y="31.289999999999992" width="72.7" height="33.08" as="geometry" />
        </mxCell>
        <mxCell id="Yg5qx0b34KUIiGcMEkgF-25" value="password" style="ellipse;whiteSpace=wrap;html=1;align=center;rotation=30;" vertex="1" parent="1">
          <mxGeometry x="-270" y="90" width="82.7" height="33.08" as="geometry" />
        </mxCell>
        <mxCell id="Yg5qx0b34KUIiGcMEkgF-26" value="" style="endArrow=none;html=1;rounded=0;exitX=0.588;exitY=0.014;exitDx=0;exitDy=0;exitPerimeter=0;entryX=0.5;entryY=1;entryDx=0;entryDy=0;" edge="1" parent="1" source="VRYEfncFMhEffbPKctWl-6" target="Yg5qx0b34KUIiGcMEkgF-24">
          <mxGeometry relative="1" as="geometry">
            <mxPoint x="-390" y="100" as="sourcePoint" />
            <mxPoint x="-230" y="100" as="targetPoint" />
          </mxGeometry>
        </mxCell>
        <mxCell id="Yg5qx0b34KUIiGcMEkgF-27" value="" style="endArrow=none;html=1;rounded=0;exitX=0.75;exitY=0;exitDx=0;exitDy=0;entryX=0.454;entryY=0.987;entryDx=0;entryDy=0;entryPerimeter=0;" edge="1" parent="1" source="VRYEfncFMhEffbPKctWl-6" target="Yg5qx0b34KUIiGcMEkgF-25">
          <mxGeometry relative="1" as="geometry">
            <mxPoint x="-390" y="100" as="sourcePoint" />
            <mxPoint x="-230" y="100" as="targetPoint" />
          </mxGeometry>
        </mxCell>
        <mxCell id="Yg5qx0b34KUIiGcMEkgF-28" value="" style="endArrow=none;html=1;rounded=0;exitX=1;exitY=0.75;exitDx=0;exitDy=0;" edge="1" parent="1" source="VRYEfncFMhEffbPKctWl-6">
          <mxGeometry relative="1" as="geometry">
            <mxPoint x="-280.0000000000002" y="220" as="sourcePoint" />
            <mxPoint x="-250.00000000000023" y="220" as="targetPoint" />
          </mxGeometry>
        </mxCell>
        <mxCell id="Yg5qx0b34KUIiGcMEkgF-30" value="updationDate" style="ellipse;whiteSpace=wrap;html=1;align=center;" vertex="1" parent="1">
          <mxGeometry x="-289.47" y="220" width="100" height="40" as="geometry" />
        </mxCell>
        <mxCell id="Yg5qx0b34KUIiGcMEkgF-31" value="id" style="ellipse;whiteSpace=wrap;html=1;align=center;fontStyle=4;" vertex="1" parent="1">
          <mxGeometry x="-365" y="410" width="85" height="39" as="geometry" />
        </mxCell>
        <mxCell id="Yg5qx0b34KUIiGcMEkgF-32" value="" style="endArrow=none;html=1;rounded=0;entryX=0.467;entryY=0.968;entryDx=0;entryDy=0;entryPerimeter=0;exitX=0.5;exitY=0;exitDx=0;exitDy=0;" edge="1" parent="1" target="Yg5qx0b34KUIiGcMEkgF-31">
          <mxGeometry relative="1" as="geometry">
            <mxPoint x="-345" y="532" as="sourcePoint" />
            <mxPoint x="-255" y="479" as="targetPoint" />
          </mxGeometry>
        </mxCell>
        <mxCell id="Yg5qx0b34KUIiGcMEkgF-33" value="&lt;font style=&quot;font-size: 11px;&quot;&gt;Charging Point&lt;/font&gt;" style="ellipse;whiteSpace=wrap;html=1;align=center;rotation=15;" vertex="1" parent="1">
          <mxGeometry x="-275.82" y="381.87" width="86.35" height="39" as="geometry" />
        </mxCell>
        <mxCell id="Yg5qx0b34KUIiGcMEkgF-34" value="" style="endArrow=none;html=1;rounded=0;exitX=0.588;exitY=0.014;exitDx=0;exitDy=0;exitPerimeter=0;entryX=0.5;entryY=1;entryDx=0;entryDy=0;" edge="1" parent="1" target="Yg5qx0b34KUIiGcMEkgF-33">
          <mxGeometry relative="1" as="geometry">
            <mxPoint x="-339.00000000000006" y="531" as="sourcePoint" />
            <mxPoint x="-199.56" y="477.1600000000001" as="targetPoint" />
          </mxGeometry>
        </mxCell>
        <mxCell id="Yg5qx0b34KUIiGcMEkgF-35" value="chargingPointAdress" style="ellipse;shape=doubleEllipse;margin=3;whiteSpace=wrap;html=1;align=center;fontSize=11;rotation=35;" vertex="1" parent="1">
          <mxGeometry x="-230.76999999999998" y="455.18" width="114.31" height="51.79" as="geometry" />
        </mxCell>
        <mxCell id="Yg5qx0b34KUIiGcMEkgF-37" value="" style="endArrow=none;html=1;rounded=0;fontSize=11;exitX=1;exitY=0.5;exitDx=0;exitDy=0;entryX=0.5;entryY=1;entryDx=0;entryDy=0;" edge="1" parent="1" source="VRYEfncFMhEffbPKctWl-10" target="Yg5qx0b34KUIiGcMEkgF-35">
          <mxGeometry relative="1" as="geometry">
            <mxPoint x="-460" y="520" as="sourcePoint" />
            <mxPoint x="-300" y="520" as="targetPoint" />
          </mxGeometry>
        </mxCell>
        <mxCell id="Yg5qx0b34KUIiGcMEkgF-38" value="Contact Number" style="ellipse;shape=doubleEllipse;margin=3;whiteSpace=wrap;html=1;align=center;fontSize=11;" vertex="1" parent="1">
          <mxGeometry x="-250" y="600" width="100" height="40" as="geometry" />
        </mxCell>
        <mxCell id="Yg5qx0b34KUIiGcMEkgF-39" value="" style="endArrow=none;html=1;rounded=0;fontSize=11;exitX=1;exitY=0.75;exitDx=0;exitDy=0;entryX=0.5;entryY=0;entryDx=0;entryDy=0;" edge="1" parent="1" source="VRYEfncFMhEffbPKctWl-10" target="Yg5qx0b34KUIiGcMEkgF-38">
          <mxGeometry relative="1" as="geometry">
            <mxPoint x="-350" y="610" as="sourcePoint" />
            <mxPoint x="-190" y="610" as="targetPoint" />
          </mxGeometry>
        </mxCell>
        <mxCell id="Yg5qx0b34KUIiGcMEkgF-40" value="creationDate" style="ellipse;whiteSpace=wrap;html=1;align=center;fontSize=11;" vertex="1" parent="1">
          <mxGeometry x="-349" y="700" width="100" height="40" as="geometry" />
        </mxCell>
        <mxCell id="Yg5qx0b34KUIiGcMEkgF-43" value="" style="endArrow=none;html=1;rounded=0;fontSize=11;exitX=0.5;exitY=0;exitDx=0;exitDy=0;entryX=0.623;entryY=1.008;entryDx=0;entryDy=0;entryPerimeter=0;" edge="1" parent="1" source="Yg5qx0b34KUIiGcMEkgF-40" target="VRYEfncFMhEffbPKctWl-10">
          <mxGeometry relative="1" as="geometry">
            <mxPoint x="-440" y="560" as="sourcePoint" />
            <mxPoint x="-280" y="560" as="targetPoint" />
          </mxGeometry>
        </mxCell>
        <mxCell id="Yg5qx0b34KUIiGcMEkgF-45" value="id" style="ellipse;whiteSpace=wrap;html=1;align=center;fontStyle=4;" vertex="1" parent="1">
          <mxGeometry x="-785" y="610" width="85" height="39" as="geometry" />
        </mxCell>
        <mxCell id="Yg5qx0b34KUIiGcMEkgF-46" value="" style="endArrow=none;html=1;rounded=0;entryX=0.5;entryY=0;entryDx=0;entryDy=0;exitX=1;exitY=0.75;exitDx=0;exitDy=0;" edge="1" parent="1" target="Yg5qx0b34KUIiGcMEkgF-45" source="VRYEfncFMhEffbPKctWl-8">
          <mxGeometry relative="1" as="geometry">
            <mxPoint x="-820" y="752" as="sourcePoint" />
            <mxPoint x="-730" y="699" as="targetPoint" />
          </mxGeometry>
        </mxCell>
        <mxCell id="Yg5qx0b34KUIiGcMEkgF-47" value="booking_id" style="ellipse;whiteSpace=wrap;html=1;align=center;fontSize=11;rotation=-5;" vertex="1" parent="1">
          <mxGeometry x="-760" y="700" width="100" height="40" as="geometry" />
        </mxCell>
        <mxCell id="Yg5qx0b34KUIiGcMEkgF-48" value="" style="endArrow=none;html=1;rounded=0;fontSize=11;entryX=0.932;entryY=0.987;entryDx=0;entryDy=0;entryPerimeter=0;exitX=0.5;exitY=0;exitDx=0;exitDy=0;" edge="1" parent="1" source="Yg5qx0b34KUIiGcMEkgF-47" target="VRYEfncFMhEffbPKctWl-8">
          <mxGeometry relative="1" as="geometry">
            <mxPoint x="-757.76" y="710" as="sourcePoint" />
            <mxPoint x="-839.9999999999998" y="611.48" as="targetPoint" />
          </mxGeometry>
        </mxCell>
        <mxCell id="Yg5qx0b34KUIiGcMEkgF-49" value="full name" style="ellipse;whiteSpace=wrap;html=1;align=center;fontSize=11;" vertex="1" parent="1">
          <mxGeometry x="-810" y="765.78" width="100" height="40" as="geometry" />
        </mxCell>
        <mxCell id="Yg5qx0b34KUIiGcMEkgF-50" value="" style="endArrow=none;html=1;rounded=0;fontSize=11;exitX=0.5;exitY=0;exitDx=0;exitDy=0;entryX=0.826;entryY=0.984;entryDx=0;entryDy=0;entryPerimeter=0;" edge="1" parent="1" source="Yg5qx0b34KUIiGcMEkgF-49" target="VRYEfncFMhEffbPKctWl-8">
          <mxGeometry relative="1" as="geometry">
            <mxPoint x="-1091" y="526" as="sourcePoint" />
            <mxPoint x="-954" y="547" as="targetPoint" />
          </mxGeometry>
        </mxCell>
        <mxCell id="Yg5qx0b34KUIiGcMEkgF-52" value="" style="endArrow=none;html=1;rounded=0;fontSize=11;entryX=0.75;entryY=1;entryDx=0;entryDy=0;" edge="1" parent="1" source="Yg5qx0b34KUIiGcMEkgF-53" target="VRYEfncFMhEffbPKctWl-8">
          <mxGeometry relative="1" as="geometry">
            <mxPoint x="-945" y="704.97" as="sourcePoint" />
            <mxPoint x="-940" y="610" as="targetPoint" />
          </mxGeometry>
        </mxCell>
        <mxCell id="Yg5qx0b34KUIiGcMEkgF-53" value="Mobile Number" style="ellipse;shape=doubleEllipse;margin=3;whiteSpace=wrap;html=1;align=center;fontSize=11;" vertex="1" parent="1">
          <mxGeometry x="-830" y="870" width="100" height="40" as="geometry" />
        </mxCell>
        <mxCell id="Yg5qx0b34KUIiGcMEkgF-54" value="chargeDate" style="ellipse;whiteSpace=wrap;html=1;align=center;fontSize=11;" vertex="1" parent="1">
          <mxGeometry x="-918" y="930" width="100" height="40" as="geometry" />
        </mxCell>
        <mxCell id="Yg5qx0b34KUIiGcMEkgF-55" value="" style="endArrow=none;html=1;rounded=0;fontSize=11;exitX=0.5;exitY=0;exitDx=0;exitDy=0;entryX=0.654;entryY=0.997;entryDx=0;entryDy=0;entryPerimeter=0;" edge="1" parent="1" source="Yg5qx0b34KUIiGcMEkgF-54" target="VRYEfncFMhEffbPKctWl-8">
          <mxGeometry relative="1" as="geometry">
            <mxPoint x="-1071" y="546" as="sourcePoint" />
            <mxPoint x="-900.8800000000001" y="611.04" as="targetPoint" />
          </mxGeometry>
        </mxCell>
        <mxCell id="Yg5qx0b34KUIiGcMEkgF-58" value="chargeTime" style="ellipse;whiteSpace=wrap;html=1;align=center;fontSize=11;rotation=0;" vertex="1" parent="1">
          <mxGeometry x="-1010" y="910" width="94.24" height="50" as="geometry" />
        </mxCell>
        <mxCell id="Yg5qx0b34KUIiGcMEkgF-59" value="" style="endArrow=none;html=1;rounded=0;fontSize=11;exitX=0.5;exitY=0;exitDx=0;exitDy=0;entryX=0.5;entryY=1;entryDx=0;entryDy=0;" edge="1" parent="1" source="Yg5qx0b34KUIiGcMEkgF-58" target="VRYEfncFMhEffbPKctWl-8">
          <mxGeometry relative="1" as="geometry">
            <mxPoint x="-1126.76" y="486" as="sourcePoint" />
            <mxPoint x="-1020" y="594.6600000000001" as="targetPoint" />
          </mxGeometry>
        </mxCell>
        <mxCell id="Yg5qx0b34KUIiGcMEkgF-60" value="status" style="ellipse;whiteSpace=wrap;html=1;align=center;fontSize=11;" vertex="1" parent="1">
          <mxGeometry x="-1090" y="840" width="100" height="40" as="geometry" />
        </mxCell>
        <mxCell id="Yg5qx0b34KUIiGcMEkgF-61" value="" style="endArrow=none;html=1;rounded=0;fontSize=11;exitX=0.5;exitY=0;exitDx=0;exitDy=0;entryX=0.25;entryY=1;entryDx=0;entryDy=0;" edge="1" parent="1" source="Yg5qx0b34KUIiGcMEkgF-60" target="VRYEfncFMhEffbPKctWl-8">
          <mxGeometry relative="1" as="geometry">
            <mxPoint x="-1251" y="501.78" as="sourcePoint" />
            <mxPoint x="-1153.4399999999998" y="547" as="targetPoint" />
          </mxGeometry>
        </mxCell>
        <mxCell id="Yg5qx0b34KUIiGcMEkgF-63" value="adminRemark" style="ellipse;whiteSpace=wrap;html=1;align=center;fontSize=11;" vertex="1" parent="1">
          <mxGeometry x="-1190" y="910" width="100" height="40" as="geometry" />
        </mxCell>
        <mxCell id="Yg5qx0b34KUIiGcMEkgF-64" value="" style="endArrow=none;html=1;rounded=0;fontSize=11;exitX=0.5;exitY=0;exitDx=0;exitDy=0;entryX=0;entryY=1;entryDx=0;entryDy=0;" edge="1" parent="1" source="Yg5qx0b34KUIiGcMEkgF-63" target="VRYEfncFMhEffbPKctWl-8">
          <mxGeometry relative="1" as="geometry">
            <mxPoint x="-1276.76" y="441" as="sourcePoint" />
            <mxPoint x="-1045.76" y="531.22" as="targetPoint" />
            <Array as="points">
              <mxPoint x="-1010" y="592" />
            </Array>
          </mxGeometry>
        </mxCell>
        <mxCell id="Yg5qx0b34KUIiGcMEkgF-65" value="txnNumber" style="ellipse;whiteSpace=wrap;html=1;align=center;fontSize=11;" vertex="1" parent="1">
          <mxGeometry x="-1322.5" y="790" width="100" height="40" as="geometry" />
        </mxCell>
        <mxCell id="Yg5qx0b34KUIiGcMEkgF-66" value="" style="endArrow=none;html=1;rounded=0;fontSize=11;exitX=0.5;exitY=0;exitDx=0;exitDy=0;entryX=0;entryY=0.75;entryDx=0;entryDy=0;" edge="1" parent="1" source="Yg5qx0b34KUIiGcMEkgF-65" target="VRYEfncFMhEffbPKctWl-8">
          <mxGeometry relative="1" as="geometry">
            <mxPoint x="-1291" y="362" as="sourcePoint" />
            <mxPoint x="-1034.24" y="498" as="targetPoint" />
          </mxGeometry>
        </mxCell>
        <mxCell id="Yg5qx0b34KUIiGcMEkgF-69" value="Payment Mode" style="ellipse;shape=doubleEllipse;margin=3;whiteSpace=wrap;html=1;align=center;fontSize=11;" vertex="1" parent="1">
          <mxGeometry x="-1240" y="830" width="100" height="40" as="geometry" />
        </mxCell>
        <mxCell id="Yg5qx0b34KUIiGcMEkgF-70" value="" style="endArrow=none;html=1;rounded=0;fontSize=11;exitX=0.5;exitY=0;exitDx=0;exitDy=0;entryX=0;entryY=1;entryDx=0;entryDy=0;" edge="1" parent="1" source="Yg5qx0b34KUIiGcMEkgF-69" target="VRYEfncFMhEffbPKctWl-8">
          <mxGeometry relative="1" as="geometry">
            <mxPoint x="-1060" y="760" as="sourcePoint" />
            <mxPoint x="-900" y="760" as="targetPoint" />
          </mxGeometry>
        </mxCell>
        <mxCell id="Yg5qx0b34KUIiGcMEkgF-71" value="postingDate" style="ellipse;whiteSpace=wrap;html=1;align=center;fontSize=11;" vertex="1" parent="1">
          <mxGeometry x="-1370" y="710" width="100" height="40" as="geometry" />
        </mxCell>
        <mxCell id="Yg5qx0b34KUIiGcMEkgF-72" value="" style="endArrow=none;html=1;rounded=0;fontSize=11;exitX=0.5;exitY=0;exitDx=0;exitDy=0;entryX=0;entryY=0.5;entryDx=0;entryDy=0;" edge="1" parent="1" source="Yg5qx0b34KUIiGcMEkgF-71" target="VRYEfncFMhEffbPKctWl-8">
          <mxGeometry relative="1" as="geometry">
            <mxPoint x="-1321" y="285" as="sourcePoint" />
            <mxPoint x="-1050" y="500" as="targetPoint" />
          </mxGeometry>
        </mxCell>
        <mxCell id="Yg5qx0b34KUIiGcMEkgF-73" value="lastUpdationDate" style="ellipse;whiteSpace=wrap;html=1;align=center;fontSize=11;" vertex="1" parent="1">
          <mxGeometry x="-1370" y="640" width="100" height="40" as="geometry" />
        </mxCell>
        <mxCell id="Yg5qx0b34KUIiGcMEkgF-74" value="" style="endArrow=none;html=1;rounded=0;fontSize=11;exitX=0.5;exitY=0;exitDx=0;exitDy=0;entryX=-0.006;entryY=0.411;entryDx=0;entryDy=0;entryPerimeter=0;" edge="1" parent="1" source="Yg5qx0b34KUIiGcMEkgF-73" target="VRYEfncFMhEffbPKctWl-8">
          <mxGeometry relative="1" as="geometry">
            <mxPoint x="-1402" y="245" as="sourcePoint" />
            <mxPoint x="-1020" y="550" as="targetPoint" />
          </mxGeometry>
        </mxCell>
        <mxCell id="Yg5qx0b34KUIiGcMEkgF-77" value="1" style="text;html=1;strokeColor=none;fillColor=none;align=center;verticalAlign=middle;whiteSpace=wrap;rounded=0;fontSize=15;" vertex="1" parent="1">
          <mxGeometry x="-477" y="181" width="60" height="30" as="geometry" />
        </mxCell>
        <mxCell id="Yg5qx0b34KUIiGcMEkgF-79" value="" style="endArrow=none;html=1;rounded=0;fontSize=15;exitX=1;exitY=0.5;exitDx=0;exitDy=0;entryX=0;entryY=0.5;entryDx=0;entryDy=0;" edge="1" parent="1" source="VRYEfncFMhEffbPKctWl-1" target="VRYEfncFMhEffbPKctWl-13">
          <mxGeometry relative="1" as="geometry">
            <mxPoint x="-1220" y="340" as="sourcePoint" />
            <mxPoint x="-1060" y="340" as="targetPoint" />
          </mxGeometry>
        </mxCell>
        <mxCell id="Yg5qx0b34KUIiGcMEkgF-80" value="M" style="resizable=0;html=1;align=left;verticalAlign=bottom;fontSize=15;" connectable="0" vertex="1" parent="Yg5qx0b34KUIiGcMEkgF-79">
          <mxGeometry x="-1" relative="1" as="geometry">
            <mxPoint x="10" as="offset" />
          </mxGeometry>
        </mxCell>
        <mxCell id="Yg5qx0b34KUIiGcMEkgF-82" value="" style="shape=link;html=1;rounded=0;fontSize=15;exitX=0.5;exitY=1;exitDx=0;exitDy=0;" edge="1" parent="1" source="VRYEfncFMhEffbPKctWl-1">
          <mxGeometry relative="1" as="geometry">
            <mxPoint x="-1010" y="670" as="sourcePoint" />
            <mxPoint x="-1440" y="1030" as="targetPoint" />
          </mxGeometry>
        </mxCell>
        <mxCell id="Yg5qx0b34KUIiGcMEkgF-83" value="M" style="resizable=0;html=1;align=left;verticalAlign=bottom;fontSize=15;" connectable="0" vertex="1" parent="Yg5qx0b34KUIiGcMEkgF-82">
          <mxGeometry x="-1" relative="1" as="geometry">
            <mxPoint x="10" y="30" as="offset" />
          </mxGeometry>
        </mxCell>
        <mxCell id="Yg5qx0b34KUIiGcMEkgF-85" value="" style="shape=link;html=1;rounded=0;fontSize=15;" edge="1" parent="1" target="Yg5qx0b34KUIiGcMEkgF-87">
          <mxGeometry relative="1" as="geometry">
            <mxPoint x="-1443" y="1030" as="sourcePoint" />
            <mxPoint x="-1160" y="1203" as="targetPoint" />
          </mxGeometry>
        </mxCell>
        <mxCell id="Yg5qx0b34KUIiGcMEkgF-87" value="Manage" style="shape=rhombus;perimeter=rhombusPerimeter;whiteSpace=wrap;html=1;align=center;fontSize=15;" vertex="1" parent="1">
          <mxGeometry x="-670" y="1000" width="120" height="60" as="geometry" />
        </mxCell>
        <mxCell id="Yg5qx0b34KUIiGcMEkgF-89" value="" style="endArrow=none;html=1;rounded=0;fontSize=15;exitX=1;exitY=0.5;exitDx=0;exitDy=0;" edge="1" parent="1" source="Yg5qx0b34KUIiGcMEkgF-87">
          <mxGeometry relative="1" as="geometry">
            <mxPoint x="-520" y="990" as="sourcePoint" />
            <mxPoint x="-80" y="1030" as="targetPoint" />
          </mxGeometry>
        </mxCell>
        <mxCell id="Yg5qx0b34KUIiGcMEkgF-90" value="" style="endArrow=none;html=1;rounded=0;fontSize=15;" edge="1" parent="1">
          <mxGeometry relative="1" as="geometry">
            <mxPoint x="-80" y="180.99777099609375" as="sourcePoint" />
            <mxPoint x="-80" y="1009.22" as="targetPoint" />
          </mxGeometry>
        </mxCell>
        <mxCell id="Yg5qx0b34KUIiGcMEkgF-91" value="" style="endArrow=none;html=1;rounded=0;fontSize=15;" edge="1" parent="1">
          <mxGeometry relative="1" as="geometry">
            <mxPoint x="-320" y="182.32999999999998" as="sourcePoint" />
            <mxPoint x="-80" y="180" as="targetPoint" />
          </mxGeometry>
        </mxCell>
        <mxCell id="Yg5qx0b34KUIiGcMEkgF-92" value="&lt;font style=&quot;font-size: 15px;&quot;&gt;1&lt;/font&gt;" style="resizable=0;html=1;align=right;verticalAlign=bottom;" connectable="0" vertex="1" parent="1">
          <mxGeometry x="-299.00166507952105" y="184.0007596666165" as="geometry" />
        </mxCell>
        <mxCell id="Yg5qx0b34KUIiGcMEkgF-93" value="M" style="resizable=0;html=1;align=right;verticalAlign=bottom;" connectable="0" vertex="1" parent="1">
          <mxGeometry x="-893.0030374797291" y="532.796488858145" as="geometry" />
        </mxCell>
        <mxCell id="Yg5qx0b34KUIiGcMEkgF-94" value="id" style="ellipse;whiteSpace=wrap;html=1;align=center;fontStyle=4;" vertex="1" parent="1">
          <mxGeometry x="-1410" y="200" width="75" height="30" as="geometry" />
        </mxCell>
        <mxCell id="Yg5qx0b34KUIiGcMEkgF-95" value="" style="endArrow=none;html=1;rounded=0;entryX=0.467;entryY=0.968;entryDx=0;entryDy=0;entryPerimeter=0;exitX=0.5;exitY=0;exitDx=0;exitDy=0;" edge="1" parent="1" target="Yg5qx0b34KUIiGcMEkgF-94">
          <mxGeometry relative="1" as="geometry">
            <mxPoint x="-1400" y="303" as="sourcePoint" />
            <mxPoint x="-1310" y="250" as="targetPoint" />
          </mxGeometry>
        </mxCell>
        <mxCell id="Yg5qx0b34KUIiGcMEkgF-97" value="" style="endArrow=none;html=1;rounded=0;entryX=0.467;entryY=0.968;entryDx=0;entryDy=0;entryPerimeter=0;" edge="1" parent="1" source="VRYEfncFMhEffbPKctWl-1">
          <mxGeometry relative="1" as="geometry">
            <mxPoint x="-1430" y="300" as="sourcePoint" />
            <mxPoint x="-1424.975" y="180.04000000000002" as="targetPoint" />
          </mxGeometry>
        </mxCell>
        <mxCell id="Yg5qx0b34KUIiGcMEkgF-98" value="full name" style="ellipse;whiteSpace=wrap;html=1;align=center;fontSize=15;" vertex="1" parent="1">
          <mxGeometry x="-1470" y="150" width="90" height="31" as="geometry" />
        </mxCell>
        <mxCell id="Yg5qx0b34KUIiGcMEkgF-99" value="" style="endArrow=none;html=1;rounded=0;entryX=0.467;entryY=0.968;entryDx=0;entryDy=0;entryPerimeter=0;exitX=0.25;exitY=0;exitDx=0;exitDy=0;" edge="1" parent="1" source="VRYEfncFMhEffbPKctWl-1">
          <mxGeometry relative="1" as="geometry">
            <mxPoint x="-1497.0531511506274" y="334" as="sourcePoint" />
            <mxPoint x="-1484.975" y="211.04000000000002" as="targetPoint" />
          </mxGeometry>
        </mxCell>
        <mxCell id="Yg5qx0b34KUIiGcMEkgF-100" value="subject" style="ellipse;whiteSpace=wrap;html=1;align=center;fontSize=15;" vertex="1" parent="1">
          <mxGeometry x="-1530" y="196" width="90" height="31" as="geometry" />
        </mxCell>
        <mxCell id="Yg5qx0b34KUIiGcMEkgF-101" value="" style="endArrow=none;html=1;rounded=0;entryX=0.5;entryY=1;entryDx=0;entryDy=0;exitX=0;exitY=0.25;exitDx=0;exitDy=0;" edge="1" parent="1" source="VRYEfncFMhEffbPKctWl-1" target="Yg5qx0b34KUIiGcMEkgF-102">
          <mxGeometry relative="1" as="geometry">
            <mxPoint x="-1597.0531511506274" y="306" as="sourcePoint" />
            <mxPoint x="-1584.975" y="183.04000000000002" as="targetPoint" />
          </mxGeometry>
        </mxCell>
        <mxCell id="Yg5qx0b34KUIiGcMEkgF-102" value="postingDate" style="ellipse;whiteSpace=wrap;html=1;align=center;fontSize=15;" vertex="1" parent="1">
          <mxGeometry x="-1640" y="196" width="90" height="31" as="geometry" />
        </mxCell>
        <mxCell id="Yg5qx0b34KUIiGcMEkgF-103" value="" style="endArrow=none;html=1;rounded=0;entryX=1;entryY=0.5;entryDx=0;entryDy=0;exitX=0;exitY=0.5;exitDx=0;exitDy=0;" edge="1" parent="1" source="VRYEfncFMhEffbPKctWl-1" target="Yg5qx0b34KUIiGcMEkgF-104">
          <mxGeometry relative="1" as="geometry">
            <mxPoint x="-1617.0531511506274" y="477.87" as="sourcePoint" />
            <mxPoint x="-1604.975" y="354.91" as="targetPoint" />
          </mxGeometry>
        </mxCell>
        <mxCell id="Yg5qx0b34KUIiGcMEkgF-104" value="status" style="ellipse;whiteSpace=wrap;html=1;align=center;fontSize=15;" vertex="1" parent="1">
          <mxGeometry x="-1650" y="324.87" width="90" height="31" as="geometry" />
        </mxCell>
      </root>
    </mxGraphModel>
  </diagram>
</mxfile>
